<?xml version="1.0" encoding="utf-8"?>
<!-- Generator: Adobe Illustrator 24.1.2, SVG Export Plug-In . SVG Version: 6.00 Build 0)  -->
<svg version="1.1" id="Layer_1" xmlns="http://www.w3.org/2000/svg" xmlns:xlink="http://www.w3.org/1999/xlink" x="0px" y="0px"
	 viewBox="0 0 154 100" style="enable-background:new 0 0 154 100;" xml:space="preserve">
<style type="text/css">
	.st0{fill:#140D25;}
	.st1{fill:#062A2B;}
	.st2{fill:#007FC6;}
	.st3{fill:#B6EAEB;}
</style>
<rect x="-98.4" y="-49" class="st0" width="77" height="50"/>
<path class="st1" d="M-98.4-24v-25h38.5h38.5v25V1h-38.5h-38.5V-24z"/>
<path class="st2" d="M-98.4-24v-25h38.5h38.5v25V1h-38.5h-38.5V-24z M-61.3,0c0.3-0.3,0.3-0.4,0.3-1.8c0-0.8-0.1-1.5-0.1-1.5
	c-0.1,0-0.2,0.1-0.2,0.2c0,0.1-0.2,0.1-0.4,0c-0.5-0.2-1.3-0.1-1.6,0.3c-0.3,0.5-0.3,1.2,0.1,1.6c0.3,0.4,1.3,0.5,1.6,0.2
	c0.3-0.3,0.4,0,0.2,0.5c-0.2,0.5-0.7,0.7-1.4,0.5c-0.6-0.2-0.8-0.1-0.4,0.2C-62.7,0.4-61.7,0.4-61.3,0z M-37.2-0.1
	c0.3-0.3,0.3-0.6,0.3-1.8c0-0.8-0.1-1.4-0.1-1.4s-0.2,0.1-0.2,0.2c-0.1,0.1-0.1,0.1-0.5,0c-0.6-0.3-1-0.2-1.5,0.2
	c-0.5,0.5-0.6,1.4-0.1,1.8c0.4,0.3,1.4,0.4,1.7,0.1c0.1-0.1,0.2-0.1,0.2,0.2c0,0.6-0.6,0.9-1.3,0.7c-0.4-0.1-0.7-0.1-0.7,0
	c-0.2,0.2,0.4,0.4,1.2,0.4C-37.6,0.3-37.5,0.2-37.2-0.1z M-40.5-1.5c0-0.5-0.1-1.1-0.2-1.3c-0.2-0.4-1-0.5-1.5-0.3
	c-0.2,0.1-0.3,0.1-0.4,0c0-0.1-0.1-0.2-0.2-0.2s-0.1,0.6-0.1,1.3c0,0.7,0.1,1.3,0.1,1.3c0.1,0,0.1-0.3,0.1-0.7
	c0-0.9,0.3-1.4,0.8-1.4c0.6-0.1,0.9,0.3,0.8,1.1c-0.1,0.8,0,1.1,0.3,1.1C-40.5-0.5-40.4-0.7-40.5-1.5z M-79.3-0.8
	c0-0.1-0.4-0.1-0.9-0.1h-0.9v-1.5c0-1.3,0-1.5-0.2-1.5c-0.2,0-0.2,0.3-0.2,1.7v1.7h1.1C-79.8-0.7-79.3-0.7-79.3-0.8z M-78.2-2
	c0-0.7-0.1-1.3-0.1-1.3c-0.1,0-0.1,0.5-0.1,1.3c0,0.7,0.1,1.3,0.1,1.3C-78.2-0.7-78.2-1.2-78.2-2z M-76.5-1.8c0-1,0.1-1.1,0.4-1.1
	c0.4-0.1,0.4-0.3-0.1-0.3c-0.3,0-0.4-0.1-0.3-0.3c0-0.3,0.1-0.3,0.4-0.3c0.2,0,0.4-0.1,0.4-0.2c0-0.1-0.2-0.2-0.5-0.1
	c-0.5,0-0.6,0.1-0.7,0.5c-0.1,0.2-0.2,0.5-0.3,0.5c-0.3,0-0.2,0.2,0,0.3c0.2,0.1,0.2,0.3,0.2,1.1c0,0.8,0,1.1,0.2,1.1
	C-76.5-0.7-76.5-0.9-76.5-1.8z M-73.1-0.9c0.2-0.2,0-0.4-0.3-0.2c-0.5,0.3-1.4,0-1.4-0.5c0-0.1,0.3-0.2,1-0.2c0.9,0,1,0,1-0.3
	c0-0.5-0.4-0.9-0.9-1c-0.9-0.2-1.5,0.4-1.5,1.3c0,0.5,0.1,0.7,0.4,0.9C-74.4-0.6-73.4-0.6-73.1-0.9z M-71.4-2.5c0-1.5,0-1.8-0.2-1.8
	c-0.2,0-0.2,0.3-0.2,1.8c0,1.5,0,1.8,0.2,1.8C-71.4-0.7-71.4-1-71.4-2.5z M-68.2-1c0.5-0.5,0.5-1.2-0.1-1.8
	c-0.5-0.5-0.9-0.5-1.6-0.2c-0.5,0.2-0.6,0.5-0.6,1.2c0,0.4,0.1,0.6,0.4,0.8C-69.5-0.6-68.7-0.6-68.2-1z M-66.5-1.5
	c0-1,0.2-1.3,0.7-1.3c0.7,0,0.8,0.2,0.8,1.2c0,0.7,0,0.9,0.2,0.9c0.2,0,0.2-0.2,0.2-0.9c0-1.4-0.6-1.9-1.7-1.5
	c-0.3,0.1-0.4,0.1-0.4,0c0-0.1-0.1-0.2-0.2-0.2c-0.1,0-0.1,0.6-0.1,1.3c0,1,0,1.3,0.2,1.3S-66.5-0.9-66.5-1.5z M-57.8-2.5
	c0-1.1-0.1-1.8-0.1-1.8c-0.1,0-0.1,0.7-0.1,1.8s0.1,1.8,0.1,1.8C-57.9-0.7-57.8-1.4-57.8-2.5z M-54.7-0.9c0.2-0.2,0.2-0.2,0.1-0.3
	c-0.1-0.1-0.3,0-0.3,0.1c-0.3,0.3-0.9,0.2-1.2-0.1c-0.5-0.5-0.3-0.6,0.8-0.6c1,0,1.1,0,1.1-0.3c0-0.4-0.7-1.1-1.2-1.1
	c-1.2,0-1.7,1.6-0.7,2.4C-56-0.6-55-0.6-54.7-0.9z M-51.5-1.7c0-0.8-0.1-1-0.3-1.2c-0.3-0.3-0.8-0.4-1.3-0.1
	c-0.6,0.2-0.4,0.4,0.4,0.4c0.6,0,0.7,0,0.8,0.3c0,0.3,0,0.3-0.5,0.3c-0.8,0-1.2,0.2-1.2,0.7c0,0.6,0.2,0.7,1.2,0.7l0.9,0V-1.7z
	 M-49.9-1.4c0-0.8,0.3-1.4,0.7-1.4c0.2,0,0.3-0.1,0.3-0.3c0-0.2-0.2-0.3-0.6,0c-0.2,0.1-0.3,0.1-0.4,0c0-0.1-0.1-0.2-0.2-0.2
	c-0.1,0-0.1,0.6-0.1,1.3c0,0.7,0.1,1.3,0.1,1.3C-50-0.7-49.9-1-49.9-1.4z M-47.7-1.5c0-0.9,0.2-1.3,0.8-1.3c0.6,0,0.7,0.2,0.7,1.2
	c0,0.7,0,0.9,0.2,0.9c0.2,0,0.2-0.2,0.2-1c0-0.8-0.1-1-0.3-1.3c-0.3-0.4-0.9-0.4-1.4-0.1c-0.3,0.2-0.3,0.2-0.3,0
	c0-0.1-0.1-0.2-0.2-0.2C-48-3.2-48.1-3-48.1-2c0,1,0,1.3,0.2,1.3C-47.7-0.7-47.7-0.9-47.7-1.5z M-44.1-2c0-1,0-1.3-0.2-1.3
	c-0.2,0-0.2,0.2-0.2,1.3c0,1,0,1.3,0.2,1.3C-44.2-0.7-44.1-0.9-44.1-2z M-78.1-3.9c0.1-0.2-0.2-0.5-0.4-0.3
	c-0.2,0.2-0.1,0.5,0.2,0.5C-78.3-3.8-78.2-3.9-78.1-3.9z M-44.1-4.1c0-0.3-0.4-0.3-0.5,0c0,0.2,0,0.3,0.2,0.2
	C-44.2-3.8-44.1-4-44.1-4.1z M-28.2-10.7c1-0.5,1.9-1.4,2.4-2.5l0.4-0.8v-13.5V-41l-0.4-0.8c-0.8-1.5-2.1-2.5-3.8-2.8
	c-0.6-0.1-11.6-0.1-30-0.1l-29.1,0l-0.9,0.5c-1.2,0.6-2.1,1.6-2.5,2.6c-0.3,0.8-0.3,0.9-0.3,14.3l0,13.5l0.3,0.6
	c0.7,1.3,1.5,2,2.8,2.5c0.7,0.3,1.5,0.3,30.5,0.2l29.8,0L-28.2-10.7z"/>
<path class="st2" d="M-62.8-1.3c-0.4-0.3-0.4-0.9-0.1-1.2c0.1-0.1,0.4-0.2,0.6-0.2c0.5,0,0.8,0.3,0.8,0.8c0,0.4-0.4,0.8-0.8,0.8
	C-62.3-1.1-62.6-1.2-62.8-1.3z"/>
<path class="st2" d="M-38.9-1.5C-39.4-2-39-2.8-38.2-2.8c0.8,0,1.1,0.9,0.6,1.4C-38-1-38.4-1-38.9-1.5z"/>
<path class="st2" d="M-74.8-2.3c0-0.1,0.1-0.3,0.2-0.4c0.4-0.4,1.4-0.1,1.4,0.3c0,0.2-0.2,0.2-0.8,0.2C-74.6-2.1-74.8-2.2-74.8-2.3z
	"/>
<path class="st2" d="M-69.7-1.2C-69.9-1.3-70-1.5-70-1.9c0-0.6,0.3-0.9,0.8-0.9c0.8,0,1.1,1,0.6,1.5C-68.9-0.9-69.3-0.9-69.7-1.2z"
	/>
<path class="st2" d="M-56.3-2.4c0.3-0.4,0.9-0.5,1.3-0.2c0.4,0.4,0.3,0.5-0.6,0.5h-0.9L-56.3-2.4z"/>
<path class="st2" d="M-53.1-1.2c-0.1-0.3,0.3-0.6,0.8-0.6c0.4,0,0.6,0.4,0.2,0.7C-52.3-0.9-53-0.9-53.1-1.2z"/>
<path class="st2" d="M-88.8-26.4c0-13,0-13.7,0.3-14.2c0.3-0.7,0.8-1.1,1.5-1.4c0.5-0.2,2-0.2,12.8-0.2h12.3v2.7v2.7h-10.7h-10.7v12
	v12h-2.7h-2.7V-26.4z"/>
<path class="st2" d="M-58.4-15.4V-18l10.9,0c12,0,11.4,0,12.3-1c0.6-0.6,0.8-1.4,0.8-2.5c0-1-0.2-1.6-0.9-2.3
	c-0.8-0.9-0.5-0.9-8.6-1c-8.2-0.1-8.2-0.1-10.2-1.1c-2.1-1-3.8-3.2-4.3-5.5c-0.2-1.1-0.2-3.3,0-4.4c0.7-3.4,3.6-5.9,7.3-6.4
	c0.6-0.1,5.1-0.1,10.2-0.1h9.1v2.7v2.7h-9.5c-9,0-9.6,0-10.1,0.3c-0.7,0.3-1.4,1.1-1.6,1.8c-0.1,0.3-0.2,0.8-0.2,1.3
	c0,1.4,0.5,2.3,1.6,2.9l0.6,0.4l7.6,0.1L-36-30l1,0.4c3.7,1.4,5.6,4,5.8,7.7c0.1,1.9-0.1,2.9-0.8,4.4c-0.9,1.8-1.9,2.9-3.7,3.8
	c-2,1-1.8,1-13.9,1h-10.8V-15.4z"/>
<path class="st2" d="M-81.3-27.5v-2.7h8.5h8.5v2.7v2.7h-8.5h-8.5V-27.5z"/>
<path class="st0" d="M-21.4-49h-77V1h77V-49z"/>
<path class="st3" d="M-98.4-24v-25h38.5h38.5v25V1h-38.5h-38.5V-24z"/>
<path class="st1" d="M-59.9-49h-38.5v25V1h38.5h38.5v-25v-25H-59.9z M-80.4-0.7h-1.1v-1.7c0-1.4,0-1.7,0.2-1.7
	c0.2,0,0.2,0.3,0.2,1.5V-1h0.9c0.5,0,0.9,0.1,0.9,0.1C-79.3-0.7-79.8-0.7-80.4-0.7z M-78.3-0.7c-0.1,0-0.1-0.5-0.1-1.3
	c0-0.7,0.1-1.3,0.1-1.3s0.1,0.5,0.1,1.3C-78.2-1.2-78.2-0.7-78.3-0.7z M-78.1-3.9c-0.1,0.1-0.2,0.2-0.2,0.2c-0.2,0-0.3-0.3-0.2-0.5
	C-78.3-4.5-78-4.2-78.1-3.9z M-76-3.9c-0.3,0-0.4,0.1-0.4,0.3c0,0.3,0,0.3,0.3,0.3c0.5,0,0.5,0.2,0.1,0.3c-0.3,0-0.3,0.1-0.4,1.1
	c0,0.8-0.1,1.1-0.2,1.1c-0.2,0-0.2-0.2-0.2-1.1c0-0.8-0.1-1.1-0.2-1.1c-0.3-0.1-0.3-0.3,0-0.3c0.1,0,0.2-0.2,0.3-0.5
	c0.1-0.4,0.2-0.5,0.7-0.5c0.4,0,0.5,0,0.5,0.1C-75.6-3.9-75.8-3.8-76-3.9z M-73.8-1.8c-0.7,0-1,0-1,0.2c0,0.5,0.9,0.8,1.4,0.5
	c0.3-0.2,0.5,0,0.3,0.2c-0.3,0.3-1.3,0.3-1.7-0.1c-0.3-0.2-0.4-0.4-0.4-0.9c0-0.9,0.6-1.4,1.5-1.3c0.5,0.1,0.9,0.5,0.9,1
	C-72.8-1.8-72.9-1.8-73.8-1.8z M-71.6-0.7c-0.2,0-0.2-0.3-0.2-1.8c0-1.5,0-1.8,0.2-1.8s0.2,0.3,0.2,1.8C-71.4-1-71.4-0.7-71.6-0.7z
	 M-68.2-1C-68.7-0.6-69.5-0.6-70-1c-0.3-0.2-0.4-0.4-0.4-0.8c0-0.7,0.1-1,0.6-1.2c0.6-0.3,1.1-0.3,1.6,0.2
	C-67.7-2.3-67.7-1.5-68.2-1z M-64.7-0.7c-0.2,0-0.2-0.2-0.2-0.9c0-1-0.1-1.2-0.8-1.2c-0.6,0-0.7,0.3-0.7,1.3c0,0.6,0,0.8-0.2,0.8
	s-0.2-0.2-0.2-1.3c0-0.7,0.1-1.3,0.1-1.3c0.1,0,0.2,0.1,0.2,0.2c0,0.1,0.2,0.1,0.4,0c1.1-0.4,1.7,0.1,1.7,1.5
	C-64.5-0.9-64.5-0.7-64.7-0.7z M-61.3,0c-0.4,0.4-1.4,0.4-1.9,0.1c-0.4-0.3-0.2-0.4,0.4-0.2c0.7,0.2,1.2,0.1,1.4-0.5
	c0.2-0.5,0.1-0.7-0.2-0.5c-0.3,0.3-1.3,0.2-1.6-0.2c-0.4-0.4-0.4-1.2-0.1-1.6c0.3-0.4,1.1-0.6,1.6-0.3c0.3,0.1,0.4,0.1,0.4,0
	c0-0.1,0.1-0.2,0.2-0.2c0.1,0,0.1,0.6,0.1,1.5C-60.9-0.4-61-0.3-61.3,0z M-58-0.7c-0.1,0-0.1-0.7-0.1-1.8c0-1.1,0.1-1.8,0.1-1.8
	c0.1,0,0.1,0.7,0.1,1.8C-57.8-1.4-57.9-0.7-58-0.7z M-55.4-1.8c-1.1,0-1.2,0.1-0.8,0.6c0.3,0.3,1,0.4,1.2,0.1
	c0.1-0.1,0.2-0.1,0.3-0.1c0.1,0.1,0.1,0.2-0.1,0.3c-0.3,0.2-1.3,0.2-1.6,0c-1-0.7-0.5-2.4,0.7-2.4c0.5,0,1.2,0.7,1.2,1.1
	C-54.3-1.8-54.4-1.8-55.4-1.8z M-51.5-0.8l-0.9,0c-1,0-1.2-0.1-1.2-0.7c0-0.5,0.4-0.7,1.2-0.7c0.4,0,0.5,0,0.5-0.3
	c0-0.3-0.1-0.3-0.8-0.3c-0.8,0-1-0.1-0.4-0.4c0.6-0.2,1-0.2,1.3,0.1c0.2,0.2,0.3,0.5,0.3,1.2V-0.8z M-49.3-2.8
	c-0.4,0.1-0.7,0.6-0.7,1.4c0,0.4-0.1,0.7-0.1,0.7c-0.1,0-0.1-0.5-0.1-1.3c0-0.7,0.1-1.3,0.1-1.3c0.1,0,0.2,0.1,0.2,0.2
	c0,0.1,0.1,0.1,0.4,0c0.4-0.2,0.6-0.2,0.6,0C-48.9-2.9-49.1-2.8-49.3-2.8z M-45.9-0.7c-0.2,0-0.2-0.2-0.2-0.9c0-1-0.1-1.2-0.7-1.2
	c-0.6,0-0.8,0.3-0.8,1.3c0,0.6,0,0.8-0.2,0.8s-0.2-0.2-0.2-1.3s0-1.3,0.2-1.3c0.1,0,0.2,0.1,0.2,0.2c0,0.2,0,0.2,0.3,0
	c0.5-0.3,1-0.3,1.4,0.1c0.2,0.2,0.3,0.5,0.3,1.3C-45.7-0.9-45.7-0.7-45.9-0.7z M-44.3-0.7c-0.2,0-0.2-0.2-0.2-1.3s0-1.3,0.2-1.3
	c0.2,0,0.2,0.2,0.2,1.3S-44.2-0.7-44.3-0.7z M-44.3-3.8c-0.2,0-0.3,0-0.2-0.2c0.1-0.3,0.5-0.4,0.5,0C-44.1-4-44.2-3.8-44.3-3.8z
	 M-40.7-0.5c-0.3,0-0.4-0.3-0.3-1.1c0.1-0.8-0.2-1.2-0.8-1.1c-0.5,0.1-0.8,0.5-0.8,1.4c0,0.4-0.1,0.7-0.1,0.7
	c-0.1,0-0.1-0.5-0.1-1.3c0-0.7,0.1-1.3,0.1-1.3s0.2,0.1,0.2,0.2c0,0.1,0.1,0.1,0.4,0c0.5-0.2,1.2-0.1,1.5,0.3
	c0.1,0.2,0.2,0.7,0.2,1.3C-40.4-0.7-40.5-0.5-40.7-0.5z M-37.2-0.1c-0.2,0.3-0.4,0.4-0.9,0.4c-0.8,0-1.4-0.2-1.2-0.4
	c0.1-0.1,0.4-0.1,0.7,0c0.7,0.2,1.3-0.1,1.3-0.7c0-0.3,0-0.3-0.2-0.2c-0.3,0.3-1.3,0.2-1.7-0.1c-0.5-0.4-0.5-1.3,0.1-1.8
	c0.4-0.4,0.9-0.4,1.5-0.2c0.3,0.1,0.4,0.1,0.5,0c0-0.1,0.1-0.2,0.2-0.2s0.1,0.6,0.1,1.4C-36.9-0.6-37-0.4-37.2-0.1z M-25.4-27.5V-14
	l-0.4,0.8c-0.5,1.1-1.4,2-2.4,2.5l-0.8,0.4l-29.8,0c-29,0-29.8,0-30.5-0.2c-1.3-0.5-2.1-1.2-2.8-2.5l-0.3-0.6l0-13.5
	c0-13.4,0-13.5,0.3-14.3c0.4-1.1,1.4-2.1,2.5-2.6l0.9-0.5l29.1,0c18.4,0,29.4,0,30,0.1c1.7,0.3,3,1.2,3.8,2.8l0.4,0.8V-27.5z"/>
<path class="st1" d="M-62.8-1.3c-0.4-0.3-0.4-0.9-0.1-1.2c0.1-0.1,0.4-0.2,0.6-0.2c0.5,0,0.8,0.3,0.8,0.8c0,0.4-0.4,0.8-0.8,0.8
	C-62.3-1.1-62.6-1.2-62.8-1.3z"/>
<path class="st1" d="M-38.9-1.5C-39.4-2-39-2.8-38.2-2.8c0.8,0,1.1,0.9,0.6,1.4C-38-1-38.4-1-38.9-1.5z"/>
<path class="st1" d="M-74.8-2.3c0-0.1,0.1-0.3,0.2-0.4c0.4-0.4,1.4-0.1,1.4,0.3c0,0.2-0.2,0.2-0.8,0.2C-74.6-2.1-74.8-2.2-74.8-2.3z
	"/>
<path class="st1" d="M-69.7-1.2C-69.9-1.3-70-1.5-70-1.9c0-0.6,0.3-0.9,0.8-0.9c0.8,0,1.1,1,0.6,1.5C-68.9-0.9-69.3-0.9-69.7-1.2z"
	/>
<path class="st1" d="M-56.3-2.4c0.3-0.4,0.9-0.5,1.3-0.2c0.4,0.4,0.3,0.5-0.6,0.5h-0.9L-56.3-2.4z"/>
<path class="st1" d="M-53.1-1.2c-0.1-0.3,0.3-0.6,0.8-0.6c0.4,0,0.6,0.4,0.2,0.7C-52.3-0.9-53-0.9-53.1-1.2z"/>
<path class="st1" d="M-88.8-26.4c0-13,0-13.7,0.3-14.2c0.3-0.7,0.8-1.1,1.5-1.4c0.5-0.2,2-0.2,12.8-0.2h12.3v2.7v2.7h-10.7h-10.7v12
	v12h-2.7h-2.7V-26.4z"/>
<path class="st1" d="M-58.4-15.4V-18l10.9,0c12,0,11.4,0,12.3-1c0.6-0.6,0.8-1.4,0.8-2.5c0-1-0.2-1.6-0.9-2.3
	c-0.8-0.9-0.5-0.9-8.6-1c-8.2-0.1-8.2-0.1-10.2-1.1c-2.1-1-3.8-3.2-4.3-5.5c-0.2-1.1-0.2-3.3,0-4.4c0.7-3.4,3.6-5.9,7.3-6.4
	c0.6-0.1,5.1-0.1,10.2-0.1h9.1v2.7v2.7h-9.5c-9,0-9.6,0-10.1,0.3c-0.7,0.3-1.4,1.1-1.6,1.8c-0.1,0.3-0.2,0.8-0.2,1.3
	c0,1.4,0.5,2.3,1.6,2.9l0.6,0.4l7.6,0.1L-36-30l1,0.4c3.7,1.4,5.6,4,5.8,7.7c0.1,1.9-0.1,2.9-0.8,4.4c-0.9,1.8-1.9,2.9-3.7,3.8
	c-2,1-1.8,1-13.9,1h-10.8V-15.4z"/>
<path class="st1" d="M-81.3-27.5v-2.7h8.5h8.5v2.7v2.7h-8.5h-8.5V-27.5z"/>
</svg>
