<svg width="154" height="100" viewBox="0 0 154 100" fill="none" xmlns="http://www.w3.org/2000/svg">
<rect width="154" height="100" fill="#140D25"/>
<path d="M0 50V0H77H154V50V100H77H0V50Z" fill="#062A2B"/>
<path d="M0 50V0H77H154V50V100H77H0V50ZM74.2308 97.9718C74.8242 97.4085 74.8807 97.1268 74.8807 94.4507C74.8807 92.8451 74.7677 91.5493 74.6264 91.5493C74.4851 91.5493 74.3156 91.6901 74.2591 91.8592C74.2026 92.0563 73.9483 92.0563 73.4114 91.831C72.4224 91.3521 70.7552 91.6901 70.2183 92.4789C69.5967 93.3803 69.6815 94.9014 70.4161 95.6901C71.0943 96.4225 73.1006 96.5916 73.694 96C74.2308 95.4648 74.4286 95.9718 74.033 96.9014C73.6092 97.9155 72.6767 98.2254 71.2639 97.8028C70.0771 97.4366 69.7097 97.6338 70.4727 98.1972C71.3486 98.8169 73.4396 98.7042 74.2308 97.9718ZM122.324 97.8592C122.833 97.2113 122.917 96.7042 122.917 94.338C122.917 92.7887 122.804 91.5493 122.663 91.5493C122.522 91.5493 122.352 91.7183 122.296 91.8873C122.183 92.169 122.013 92.169 121.392 91.8873C120.233 91.3803 119.357 91.4648 118.481 92.2254C117.436 93.1268 117.379 95.0141 118.368 95.8028C119.131 96.4225 121.194 96.5352 121.731 96C121.985 95.7465 122.07 95.831 122.07 96.4225C122.07 97.6056 120.911 98.2254 119.442 97.8028C118.735 97.6338 118.142 97.6056 118.001 97.7465C117.605 98.1408 118.877 98.5634 120.431 98.5634C121.533 98.5916 121.844 98.4789 122.324 97.8592ZM115.825 95.0141C115.768 93.9437 115.571 92.8169 115.345 92.4789C114.864 91.6901 113.338 91.3803 112.434 91.8592C111.954 92.1127 111.756 92.1127 111.671 91.8592C111.615 91.6901 111.445 91.5493 111.304 91.5493C111.163 91.5493 111.05 92.7042 111.05 94.0845C111.05 95.5775 111.163 96.6197 111.332 96.6197C111.502 96.6197 111.615 96.0282 111.615 95.2958C111.615 93.493 112.123 92.5634 113.141 92.4507C114.412 92.3099 114.949 93.0141 114.779 94.6479C114.638 96.2817 114.808 96.9014 115.458 96.9014C115.825 96.9014 115.881 96.5916 115.825 95.0141ZM38.1468 96.338C38.1468 96.169 37.3556 96.0563 36.3101 96.0563H34.4734V92.9577C34.4734 90.3944 34.3886 89.8592 34.0495 89.8592C33.7105 89.8592 33.6257 90.4225 33.6257 93.2394V96.6197H35.8862C37.2143 96.6197 38.1468 96.507 38.1468 96.338ZM40.4073 94.0845C40.4073 92.5916 40.2943 91.5493 40.1248 91.5493C39.9552 91.5493 39.8422 92.5916 39.8422 94.0845C39.8422 95.5775 39.9552 96.6197 40.1248 96.6197C40.2943 96.6197 40.4073 95.5775 40.4073 94.0845ZM43.8547 94.4507C43.9394 92.4225 43.996 92.2535 44.5894 92.169C45.4371 92.0282 45.3806 91.5493 44.4763 91.5493C43.8829 91.5493 43.7699 91.4366 43.8547 90.9296C43.9112 90.4225 44.109 90.2817 44.7306 90.2817C45.1828 90.3099 45.4936 90.1409 45.4936 89.9155C45.4936 89.662 45.1828 89.5775 44.4481 89.6338C43.5156 89.7183 43.3461 89.831 43.0917 90.6479C42.9505 91.1268 42.6679 91.5493 42.4701 91.5493C41.9615 91.5493 42.018 92.0282 42.5266 92.2254C42.8374 92.338 42.9505 92.8732 42.9505 94.507C42.9505 96.169 43.0352 96.6197 43.3743 96.6197C43.6851 96.6197 43.7982 96.1127 43.8547 94.4507ZM50.5516 96.2254C50.9754 95.7465 50.5798 95.4366 50.0147 95.8028C48.9974 96.4225 47.189 95.7465 47.189 94.7324C47.189 94.4507 47.6976 94.3662 49.167 94.3662C51.0319 94.3662 51.145 94.338 51.145 93.7183C51.145 92.7324 50.382 91.8592 49.3365 91.662C47.6128 91.3521 46.3413 92.4225 46.3413 94.2254C46.3413 95.2113 46.4826 95.5775 47.076 96.0282C47.9519 96.7324 50.0429 96.8451 50.5516 96.2254ZM53.9706 93.0986C53.9706 90.169 53.9141 89.5775 53.5468 89.5775C53.1795 89.5775 53.1229 90.169 53.1229 93.0986C53.1229 96.0282 53.1795 96.6197 53.5468 96.6197C53.9141 96.6197 53.9706 96.0282 53.9706 93.0986ZM60.3284 95.9155C61.3457 94.9296 61.2892 93.4366 60.2154 92.3662C59.2829 91.4648 58.3222 91.3239 57.1072 91.9718C56.1747 92.4507 55.9486 92.9014 55.9486 94.3662C55.9486 95.2113 56.1182 95.5775 56.6833 96.0282C57.7571 96.8732 59.4525 96.8169 60.3284 95.9155ZM63.8606 95.0423C63.8606 92.9859 64.1996 92.3944 65.3582 92.3944C66.6862 92.3944 66.9688 92.8169 66.9688 94.8451C66.9688 96.2254 67.0536 96.6197 67.3927 96.6197C67.7317 96.6197 67.8165 96.2254 67.8165 94.8169C67.8165 92.0282 66.7145 91.0141 64.5105 91.8592C63.9736 92.0563 63.691 92.0563 63.6345 91.8592C63.578 91.6901 63.4084 91.5493 63.2672 91.5493C63.1259 91.5493 63.0128 92.7042 63.0128 94.0845C63.0128 96.1408 63.0976 96.6197 63.4367 96.6197C63.7758 96.6197 63.8606 96.2535 63.8606 95.0423ZM81.0972 93.0986C81.0972 90.9296 80.9842 89.5775 80.8147 89.5775C80.6451 89.5775 80.5321 90.9296 80.5321 93.0986C80.5321 95.2676 80.6451 96.6197 80.8147 96.6197C80.9842 96.6197 81.0972 95.2676 81.0972 93.0986ZM87.455 96.2535C87.8224 95.9437 87.8789 95.8028 87.6246 95.6338C87.4268 95.5211 87.116 95.5775 86.9464 95.7465C86.4378 96.2535 85.1097 96.1127 84.4881 95.493C83.5556 94.5634 83.8099 94.3662 86.0422 94.3662C87.9919 94.3662 88.1615 94.3099 88.1615 93.7746C88.1615 92.9014 86.6639 91.5493 85.6749 91.5493C83.273 91.5493 82.2558 94.7887 84.1772 96.2535C84.7989 96.7324 86.8051 96.7042 87.455 96.2535ZM93.8128 94.5916C93.8128 93.0423 93.6998 92.5634 93.2477 92.1127C92.6261 91.493 91.7218 91.4085 90.5916 91.831C89.433 92.2535 89.7439 92.5634 91.3545 92.5352C92.6543 92.5352 92.8239 92.5916 92.9086 93.1831C92.9934 93.7183 92.8804 93.8028 92.0044 93.8028C90.3655 93.8028 89.5743 94.2254 89.5743 95.1549C89.5743 96.3662 90.0547 96.6479 92.0327 96.5634L93.8128 96.4789V94.5916ZM96.9211 95.2958C96.9211 93.6338 97.4297 92.5634 98.2774 92.4507C98.6165 92.3944 98.8991 92.169 98.8991 91.9437C98.8991 91.4648 98.5035 91.4366 97.684 91.8592C97.2319 92.1127 97.0624 92.1127 96.9776 91.8592C96.9211 91.6901 96.7516 91.5493 96.6103 91.5493C96.469 91.5493 96.356 92.7042 96.356 94.0845C96.356 95.5775 96.469 96.6197 96.6385 96.6197C96.8081 96.6197 96.9211 96.0282 96.9211 95.2958ZM101.442 94.9578C101.442 93.0704 101.866 92.3944 103.109 92.3944C104.268 92.3944 104.55 92.8732 104.55 94.8451C104.55 96.2254 104.635 96.6197 104.974 96.6197C105.313 96.6197 105.398 96.2254 105.398 94.7042C105.398 93.1549 105.285 92.6479 104.833 92.169C104.155 91.4366 102.968 91.3521 102.064 92C101.499 92.3944 101.442 92.3944 101.442 92C101.442 91.7465 101.244 91.5493 101.018 91.5493C100.679 91.5493 100.594 92.0282 100.594 94.0845C100.594 96.1408 100.679 96.6197 101.018 96.6197C101.357 96.6197 101.442 96.2535 101.442 94.9578ZM108.506 94.0845C108.506 92.0282 108.422 91.5493 108.083 91.5493C107.743 91.5493 107.659 92.0282 107.659 94.0845C107.659 96.1408 107.743 96.6197 108.083 96.6197C108.422 96.6197 108.506 96.1408 108.506 94.0845ZM40.5769 90.1127C40.8595 89.6338 40.2095 89.0986 39.8139 89.493C39.4749 89.831 39.7009 90.4225 40.1248 90.4225C40.2661 90.4225 40.4639 90.2817 40.5769 90.1127ZM108.648 89.8592C108.648 89.2394 107.828 89.3521 107.715 89.9437C107.63 90.338 107.743 90.4507 108.139 90.3662C108.422 90.3099 108.648 90.0845 108.648 89.8592ZM140.465 76.5352C142.415 75.6056 144.195 73.7465 145.184 71.6056L145.947 70V42.9577V15.9155L145.127 14.2254C143.601 11.1549 140.974 9.23944 137.555 8.70423C136.424 8.53521 114.271 8.4507 77.5651 8.50704L19.356 8.59155L17.4628 9.52113C15.1457 10.6479 13.2525 12.6479 12.433 14.8169C11.8679 16.3662 11.8679 16.6761 11.9244 43.4648L12.0092 70.5634L12.6873 71.831C14.1284 74.507 15.5978 75.8592 18.2539 76.9014C19.6103 77.4366 21.1927 77.4366 79.2606 77.3803L138.883 77.3239L140.465 76.5352Z" fill="#007FC6"/>
<path d="M71.2638 95.3239C70.5292 94.8169 70.4161 93.493 71.0943 92.8451C71.3204 92.5915 71.8855 92.3944 72.3376 92.3944C73.3548 92.3944 74.033 93.0704 74.033 94.0845C74.033 94.9296 73.1853 95.7747 72.3376 95.7747C72.0833 95.7747 71.6029 95.5775 71.2638 95.3239Z" fill="#007FC6"/>
<path d="M119.075 95.0704C117.944 93.9437 118.707 92.3944 120.374 92.3944C121.9 92.3944 122.578 94.1408 121.505 95.2113C120.742 95.9718 119.922 95.9155 119.075 95.0704Z" fill="#007FC6"/>
<path d="M47.189 93.4366C47.189 93.2394 47.3302 92.9296 47.528 92.7324C48.2345 92.0282 50.2972 92.5352 50.2972 93.3803C50.2972 93.6901 49.9299 93.8028 48.7431 93.8028C47.6693 93.8028 47.189 93.6901 47.189 93.4366Z" fill="#007FC6"/>
<path d="M57.4462 95.6338C57.0224 95.3521 56.8528 94.9296 56.8528 94.2817C56.8811 93.1268 57.5028 92.3944 58.4917 92.3944C60.0459 92.3944 60.7523 94.3662 59.622 95.493C58.9439 96.169 58.2657 96.1972 57.4462 95.6338Z" fill="#007FC6"/>
<path d="M84.2621 93.1831C84.7989 92.3662 86.0705 92.1972 86.7769 92.8451C87.6529 93.6338 87.4268 93.8028 85.5901 93.8028H83.8665L84.2621 93.1831Z" fill="#007FC6"/>
<path d="M90.5068 95.6056C90.2807 94.9859 91.1284 94.3662 92.1739 94.3662C93.0216 94.3662 93.2759 95.0704 92.626 95.7183C92.1174 96.2253 90.7046 96.1408 90.5068 95.6056Z" fill="#007FC6"/>
<path d="M19.2147 45.1549C19.2147 19.2394 19.2429 17.831 19.7515 16.7606C20.3732 15.4084 21.2774 14.5352 22.662 13.9437C23.5945 13.5775 26.7592 13.5211 48.3192 13.5211H72.9027V18.8732V24.2253H51.4275H29.9523V48.3099V72.3944H24.5835H19.2147V45.1549Z" fill="#007FC6"/>
<path d="M79.9669 67.1831V62L101.668 61.9155C125.743 61.831 124.443 61.9155 126.223 59.9155C127.382 58.6197 127.834 57.1831 127.834 54.9296C127.834 52.9577 127.382 51.7183 126.054 50.338C124.387 48.5352 125.037 48.6197 108.789 48.4225C92.3435 48.2253 92.3717 48.2253 88.444 46.3098C84.3185 44.2817 80.8712 39.8591 79.9387 35.3521C79.4866 33.1831 79.4866 28.7887 79.9387 26.6197C81.3515 19.8591 87.1442 14.7606 94.4627 13.8028C95.593 13.662 104.72 13.5211 114.808 13.5211H133.09V18.8732V24.2253H114.045C95.9886 24.2253 94.9148 24.2535 93.7563 24.7606C92.3717 25.3521 90.9871 26.9014 90.4785 28.4225C90.2807 28.9577 90.1394 30.1127 90.1394 30.9859C90.1394 33.8028 91.0719 35.5775 93.2477 36.8451L94.5192 37.6056L109.637 37.7465L124.754 37.9155L126.817 38.676C134.192 41.4929 138.063 46.676 138.402 54.169C138.572 57.8873 138.176 59.9155 136.763 62.9577C135.04 66.6197 133.033 68.676 129.332 70.4788C125.432 72.4225 125.687 72.3943 101.612 72.3943H79.9669V67.1831Z" fill="#007FC6"/>
<path d="M34.1908 43.0986V37.7465H51.1449H68.099V43.0986V48.4507H51.1449H34.1908V43.0986Z" fill="#007FC6"/>
<path d="M154 0H0V100H154V0Z" fill="#140D25"/>
<path d="M0 50V0H77H154V50V100H77H0V50Z" fill="#B6EAEB"/>
<path d="M0 50V0H77H154V50V100H77H0V50ZM74.2308 97.9718C74.8242 97.4085 74.8807 97.1268 74.8807 94.4507C74.8807 92.8451 74.7677 91.5493 74.6264 91.5493C74.4851 91.5493 74.3156 91.6901 74.2591 91.8592C74.2026 92.0563 73.9483 92.0563 73.4114 91.831C72.4224 91.3521 70.7552 91.6901 70.2184 92.4789C69.5967 93.3803 69.6815 94.9014 70.4161 95.6901C71.0943 96.4225 73.1006 96.5916 73.694 96C74.2308 95.4648 74.4286 95.9718 74.033 96.9014C73.6092 97.9155 72.6767 98.2254 71.2639 97.8028C70.0771 97.4366 69.7097 97.6338 70.4727 98.1972C71.3486 98.8169 73.4396 98.7042 74.2308 97.9718ZM122.324 97.8592C122.833 97.2113 122.917 96.7042 122.917 94.338C122.917 92.7887 122.804 91.5493 122.663 91.5493C122.522 91.5493 122.352 91.7183 122.296 91.8873C122.183 92.169 122.013 92.169 121.392 91.8873C120.233 91.3803 119.357 91.4648 118.481 92.2254C117.436 93.1268 117.379 95.0141 118.368 95.8028C119.131 96.4225 121.194 96.5352 121.731 96C121.985 95.7465 122.07 95.831 122.07 96.4225C122.07 97.6056 120.911 98.2254 119.442 97.8028C118.735 97.6338 118.142 97.6056 118.001 97.7465C117.605 98.1408 118.877 98.5634 120.431 98.5634C121.533 98.5916 121.844 98.4789 122.324 97.8592ZM115.825 95.0141C115.768 93.9437 115.571 92.8169 115.345 92.4789C114.864 91.6901 113.338 91.3803 112.434 91.8592C111.954 92.1127 111.756 92.1127 111.671 91.8592C111.615 91.6901 111.445 91.5493 111.304 91.5493C111.163 91.5493 111.05 92.7042 111.05 94.0845C111.05 95.5775 111.163 96.6197 111.332 96.6197C111.502 96.6197 111.615 96.0282 111.615 95.2958C111.615 93.493 112.123 92.5634 113.141 92.4507C114.412 92.3099 114.949 93.0141 114.779 94.6479C114.638 96.2817 114.808 96.9014 115.458 96.9014C115.825 96.9014 115.881 96.5916 115.825 95.0141ZM38.1468 96.338C38.1468 96.169 37.3556 96.0563 36.3101 96.0563H34.4734V92.9577C34.4734 90.3944 34.3886 89.8592 34.0495 89.8592C33.7105 89.8592 33.6257 90.4225 33.6257 93.2394V96.6197H35.8862C37.2143 96.6197 38.1468 96.507 38.1468 96.338ZM40.4073 94.0845C40.4073 92.5916 40.2943 91.5493 40.1248 91.5493C39.9552 91.5493 39.8422 92.5916 39.8422 94.0845C39.8422 95.5775 39.9552 96.6197 40.1248 96.6197C40.2943 96.6197 40.4073 95.5775 40.4073 94.0845ZM43.8547 94.4507C43.9394 92.4225 43.996 92.2535 44.5894 92.169C45.4371 92.0282 45.3806 91.5493 44.4763 91.5493C43.8829 91.5493 43.7699 91.4366 43.8547 90.9296C43.9112 90.4225 44.109 90.2817 44.7306 90.2817C45.1828 90.3099 45.4936 90.1409 45.4936 89.9155C45.4936 89.662 45.1828 89.5775 44.4481 89.6338C43.5156 89.7183 43.3461 89.831 43.0917 90.6479C42.9505 91.1268 42.6679 91.5493 42.4701 91.5493C41.9615 91.5493 42.018 92.0282 42.5266 92.2254C42.8374 92.338 42.9505 92.8732 42.9505 94.507C42.9505 96.169 43.0352 96.6197 43.3743 96.6197C43.6851 96.6197 43.7982 96.1127 43.8547 94.4507ZM50.5516 96.2254C50.9754 95.7465 50.5798 95.4366 50.0147 95.8028C48.9974 96.4225 47.189 95.7465 47.189 94.7324C47.189 94.4507 47.6976 94.3662 49.167 94.3662C51.0319 94.3662 51.145 94.338 51.145 93.7183C51.145 92.7324 50.382 91.8592 49.3365 91.662C47.6128 91.3521 46.3413 92.4225 46.3413 94.2254C46.3413 95.2113 46.4826 95.5775 47.076 96.0282C47.9519 96.7324 50.0429 96.8451 50.5516 96.2254ZM53.9706 93.0986C53.9706 90.169 53.9141 89.5775 53.5468 89.5775C53.1795 89.5775 53.1229 90.169 53.1229 93.0986C53.1229 96.0282 53.1795 96.6197 53.5468 96.6197C53.9141 96.6197 53.9706 96.0282 53.9706 93.0986ZM60.3284 95.9155C61.3457 94.9296 61.2892 93.4366 60.2154 92.3662C59.2829 91.4648 58.3222 91.3239 57.1072 91.9718C56.1747 92.4507 55.9486 92.9014 55.9486 94.3662C55.9486 95.2113 56.1182 95.5775 56.6833 96.0282C57.7571 96.8732 59.4525 96.8169 60.3284 95.9155ZM63.8605 95.0423C63.8605 92.9859 64.1996 92.3944 65.3582 92.3944C66.6862 92.3944 66.9688 92.8169 66.9688 94.8451C66.9688 96.2254 67.0536 96.6197 67.3927 96.6197C67.7317 96.6197 67.8165 96.2254 67.8165 94.8169C67.8165 92.0282 66.7145 91.0141 64.5105 91.8592C63.9736 92.0563 63.691 92.0563 63.6345 91.8592C63.578 91.6901 63.4084 91.5493 63.2672 91.5493C63.1259 91.5493 63.0128 92.7042 63.0128 94.0845C63.0128 96.1408 63.0976 96.6197 63.4367 96.6197C63.7758 96.6197 63.8605 96.2535 63.8605 95.0423ZM81.0973 93.0986C81.0973 90.9296 80.9842 89.5775 80.8147 89.5775C80.6451 89.5775 80.5321 90.9296 80.5321 93.0986C80.5321 95.2676 80.6451 96.6197 80.8147 96.6197C80.9842 96.6197 81.0973 95.2676 81.0973 93.0986ZM87.455 96.2535C87.8224 95.9437 87.8789 95.8028 87.6246 95.6338C87.4268 95.5211 87.116 95.5775 86.9464 95.7465C86.4378 96.2535 85.1097 96.1127 84.4881 95.493C83.5556 94.5634 83.8099 94.3662 86.0422 94.3662C87.9919 94.3662 88.1615 94.3099 88.1615 93.7747C88.1615 92.9014 86.6639 91.5493 85.6749 91.5493C83.273 91.5493 82.2558 94.7887 84.1772 96.2535C84.7989 96.7324 86.8051 96.7042 87.455 96.2535ZM93.8128 94.5916C93.8128 93.0423 93.6998 92.5634 93.2477 92.1127C92.6261 91.493 91.7218 91.4085 90.5916 91.831C89.433 92.2535 89.7439 92.5634 91.3545 92.5352C92.6543 92.5352 92.8239 92.5916 92.9086 93.1831C92.9934 93.7183 92.8804 93.8028 92.0044 93.8028C90.3655 93.8028 89.5743 94.2254 89.5743 95.1549C89.5743 96.3662 90.0547 96.6479 92.0327 96.5634L93.8128 96.4789V94.5916ZM96.9211 95.2958C96.9211 93.6338 97.4297 92.5634 98.2774 92.4507C98.6165 92.3944 98.8991 92.169 98.8991 91.9437C98.8991 91.4648 98.5035 91.4366 97.684 91.8592C97.2319 92.1127 97.0624 92.1127 96.9776 91.8592C96.9211 91.6901 96.7516 91.5493 96.6103 91.5493C96.469 91.5493 96.356 92.7042 96.356 94.0845C96.356 95.5775 96.469 96.6197 96.6385 96.6197C96.8081 96.6197 96.9211 96.0282 96.9211 95.2958ZM101.442 94.9577C101.442 93.0704 101.866 92.3944 103.109 92.3944C104.268 92.3944 104.55 92.8732 104.55 94.8451C104.55 96.2254 104.635 96.6197 104.974 96.6197C105.313 96.6197 105.398 96.2254 105.398 94.7042C105.398 93.1549 105.285 92.6479 104.833 92.169C104.155 91.4366 102.968 91.3521 102.064 92C101.499 92.3944 101.442 92.3944 101.442 92C101.442 91.7465 101.244 91.5493 101.018 91.5493C100.679 91.5493 100.594 92.0282 100.594 94.0845C100.594 96.1408 100.679 96.6197 101.018 96.6197C101.357 96.6197 101.442 96.2535 101.442 94.9577ZM108.506 94.0845C108.506 92.0282 108.422 91.5493 108.083 91.5493C107.743 91.5493 107.659 92.0282 107.659 94.0845C107.659 96.1408 107.743 96.6197 108.083 96.6197C108.422 96.6197 108.506 96.1408 108.506 94.0845ZM40.5769 90.1127C40.8595 89.6338 40.2095 89.0986 39.8139 89.493C39.4749 89.831 39.7009 90.4225 40.1248 90.4225C40.2661 90.4225 40.4639 90.2817 40.5769 90.1127ZM108.648 89.8592C108.648 89.2394 107.828 89.3521 107.715 89.9437C107.63 90.338 107.743 90.4507 108.139 90.3662C108.422 90.3099 108.648 90.0845 108.648 89.8592ZM140.465 76.5352C142.415 75.6056 144.195 73.7465 145.184 71.6056L145.947 70V42.9577V15.9155L145.127 14.2254C143.601 11.1549 140.974 9.23944 137.555 8.70423C136.424 8.53521 114.271 8.4507 77.5651 8.50704L19.356 8.59155L17.4628 9.52113C15.1457 10.6479 13.2525 12.6479 12.433 14.8169C11.8679 16.3662 11.8679 16.6761 11.9244 43.4648L12.0092 70.5634L12.6873 71.831C14.1284 74.507 15.5978 75.8592 18.2539 76.9014C19.6103 77.4366 21.1927 77.4366 79.2606 77.3803L138.883 77.3239L140.465 76.5352Z" fill="#062A2B"/>
<path d="M71.2638 95.3239C70.5292 94.8169 70.4161 93.4929 71.0943 92.8451C71.3204 92.5915 71.8855 92.3943 72.3376 92.3943C73.3548 92.3943 74.033 93.0704 74.033 94.0845C74.033 94.9296 73.1853 95.7746 72.3376 95.7746C72.0833 95.7746 71.6029 95.5775 71.2638 95.3239Z" fill="#062A2B"/>
<path d="M119.075 95.0704C117.944 93.9436 118.707 92.3943 120.374 92.3943C121.9 92.3943 122.578 94.1408 121.505 95.2112C120.742 95.9718 119.922 95.9155 119.075 95.0704Z" fill="#062A2B"/>
<path d="M47.189 93.4366C47.189 93.2394 47.3302 92.9296 47.528 92.7324C48.2345 92.0282 50.2972 92.5352 50.2972 93.3803C50.2972 93.6901 49.9299 93.8028 48.7431 93.8028C47.6693 93.8028 47.189 93.6901 47.189 93.4366Z" fill="#062A2B"/>
<path d="M57.4462 95.6338C57.0224 95.3521 56.8528 94.9296 56.8528 94.2817C56.8811 93.1267 57.5028 92.3943 58.4917 92.3943C60.0459 92.3943 60.7523 94.3662 59.622 95.4929C58.9439 96.169 58.2657 96.1972 57.4462 95.6338Z" fill="#062A2B"/>
<path d="M84.2621 93.1831C84.7989 92.3662 86.0705 92.1972 86.7769 92.845C87.6529 93.6338 87.4268 93.8028 85.5901 93.8028H83.8665L84.2621 93.1831Z" fill="#062A2B"/>
<path d="M90.5068 95.6056C90.2807 94.9859 91.1284 94.3662 92.1739 94.3662C93.0216 94.3662 93.2759 95.0704 92.626 95.7183C92.1174 96.2253 90.7046 96.1408 90.5068 95.6056Z" fill="#062A2B"/>
<path d="M19.2147 45.1549C19.2147 19.2394 19.2429 17.831 19.7515 16.7606C20.3732 15.4084 21.2774 14.5352 22.662 13.9437C23.5945 13.5775 26.7592 13.5211 48.3192 13.5211H72.9027V18.8732V24.2253H51.4275H29.9523V48.3099V72.3944H24.5835H19.2147V45.1549Z" fill="#062A2B"/>
<path d="M79.9669 67.1831V62L101.668 61.9155C125.743 61.831 124.443 61.9155 126.223 59.9155C127.382 58.6197 127.834 57.1831 127.834 54.9296C127.834 52.9577 127.382 51.7183 126.054 50.338C124.387 48.5352 125.037 48.6197 108.789 48.4225C92.3435 48.2253 92.3717 48.2253 88.444 46.3098C84.3185 44.2817 80.8712 39.8591 79.9387 35.3521C79.4866 33.1831 79.4866 28.7887 79.9387 26.6197C81.3515 19.8591 87.1442 14.7606 94.4627 13.8028C95.593 13.662 104.72 13.5211 114.808 13.5211H133.09V18.8732V24.2253H114.045C95.9886 24.2253 94.9148 24.2535 93.7563 24.7606C92.3717 25.3521 90.9871 26.9014 90.4785 28.4225C90.2807 28.9577 90.1394 30.1127 90.1394 30.9859C90.1394 33.8028 91.0719 35.5775 93.2477 36.8451L94.5192 37.6056L109.637 37.7465L124.754 37.9155L126.817 38.676C134.192 41.4929 138.063 46.676 138.402 54.169C138.572 57.8873 138.176 59.9155 136.763 62.9577C135.04 66.6197 133.033 68.676 129.332 70.4788C125.432 72.4225 125.687 72.3943 101.612 72.3943H79.9669V67.1831Z" fill="#062A2B"/>
<path d="M34.1908 43.0986V37.7465H51.1449H68.099V43.0986V48.4507H51.1449H34.1908V43.0986Z" fill="#062A2B"/>
</svg>
