<svg xmlns="http://www.w3.org/2000/svg" viewBox="0 0 77 50"><defs><style>.cls-1{fill:#140d25;}.cls-2{fill:#062a2b;}.cls-3{fill:#007fc6;}.cls-4{fill:#b6eaeb;}</style></defs><g id="Layer_2" data-name="Layer 2"><g id="Layer_1-2" data-name="Layer 1"><rect class="cls-1" width="77" height="50"/><path class="cls-2" d="M0,25V0H77V50H0Z"/><path class="cls-3" d="M0,25V0H77V50H0ZM37.12,49c.29-.29.32-.43.32-1.76a4.25,4.25,0,0,0-.13-1.46c-.07,0-.15.08-.18.16s-.16.1-.42,0a1.46,1.46,0,0,0-1.6.32,1.4,1.4,0,0,0,.1,1.61,1.5,1.5,0,0,0,1.64.15c.27-.27.36,0,.17.45s-.68.66-1.39.45-.78-.08-.39.2A1.89,1.89,0,0,0,37.12,49Zm24-.06c.26-.32.3-.58.3-1.76a3.9,3.9,0,0,0-.13-1.4c-.07,0-.15.09-.18.17s-.14.14-.45,0a1.25,1.25,0,0,0-1.52,2,1.77,1.77,0,0,0,1.69.1c.12-.13.16-.08.16.21,0,.59-.57.9-1.31.69a1.17,1.17,0,0,0-.72,0c-.2.2.44.41,1.22.41C60.77,49.3,60.92,49.24,61.16,48.93Zm-3.25-1.42a3.43,3.43,0,0,0-.24-1.27,1.23,1.23,0,0,0-1.45-.31c-.24.13-.34.13-.38,0a.25.25,0,0,0-.19-.16A3.42,3.42,0,0,0,55.53,47c0,.75,0,1.27.14,1.27s.14-.3.14-.66c0-.9.25-1.37.76-1.42s.9.28.82,1.09,0,1.13.34,1.13S57.94,48.3,57.91,47.51Zm-38.84.66c0-.09-.39-.14-.91-.14h-.92V46.48c0-1.28,0-1.55-.22-1.55s-.21.28-.21,1.69v1.69h1.13C18.61,48.31,19.07,48.25,19.07,48.17ZM20.2,47c0-.74-.05-1.27-.14-1.27s-.14.53-.14,1.27.06,1.27.14,1.27S20.2,47.79,20.2,47Zm1.73.19c0-1,.07-1.1.36-1.15s.4-.31-.05-.31c-.3,0-.36-.05-.31-.31s.12-.32.44-.32.38-.07.38-.18-.16-.17-.53-.14-.55.1-.67.5c-.07.24-.22.45-.31.45-.26,0-.23.24,0,.34s.22.33.22,1.14,0,1.06.21,1.06S21.9,48.06,21.93,47.23Zm3.35.88c.21-.24,0-.39-.27-.21-.51.31-1.42,0-1.42-.53,0-.14.26-.19,1-.19.94,0,1,0,1-.32a1.08,1.08,0,0,0-.9-1,1.21,1.21,0,0,0-1.5,1.28c0,.5.07.68.37.9A1.65,1.65,0,0,0,25.28,48.11ZM27,46.55c0-1.47,0-1.76-.22-1.76s-.21.29-.21,1.76,0,1.76.21,1.76S27,48,27,46.55ZM30.16,48a1.21,1.21,0,0,0-.05-1.78A1.19,1.19,0,0,0,28.55,46c-.46.24-.58.46-.58,1.19a.87.87,0,0,0,.37.83A1.42,1.42,0,0,0,30.16,48Zm1.77-.44c0-1,.17-1.32.75-1.32s.8.21.8,1.22c0,.69.05.89.22.89s.21-.2.21-.9c0-1.4-.55-1.9-1.65-1.48-.27.1-.41.1-.44,0a.25.25,0,0,0-.19-.16A3.42,3.42,0,0,0,31.51,47c0,1,0,1.27.21,1.27S31.93,48.13,31.93,47.52Zm8.62-1a5,5,0,0,0-.14-1.76,4.71,4.71,0,0,0-.14,1.76,4.75,4.75,0,0,0,.14,1.76A5,5,0,0,0,40.55,46.55Zm3.18,1.58c.18-.16.21-.23.08-.31a.31.31,0,0,0-.34,0,1,1,0,0,1-1.23-.12c-.46-.47-.34-.57.78-.57s1.06,0,1.06-.29a1.54,1.54,0,0,0-1.24-1.12,1.32,1.32,0,0,0-.75,2.36A2,2,0,0,0,43.73,48.13Zm3.18-.83c0-.78-.06-1-.29-1.24a1.15,1.15,0,0,0-1.32-.14c-.58.21-.43.36.38.35.65,0,.73,0,.77.32s0,.31-.45.31c-.82,0-1.21.21-1.21.68s.24.74,1.23.7l.89,0Zm1.55.35c0-.83.25-1.37.68-1.42.17,0,.31-.15.31-.26s-.2-.25-.61,0c-.22.13-.31.13-.35,0s-.11-.16-.18-.16A3.09,3.09,0,0,0,48.18,47c0,.75,0,1.27.14,1.27S48.46,48,48.46,47.65Zm2.26-.17c0-.94.21-1.28.83-1.28s.73.24.73,1.22c0,.69,0,.89.21.89s.21-.2.21-1-.06-1-.28-1.27A1.07,1.07,0,0,0,51,46c-.28.2-.31.2-.31,0a.22.22,0,0,0-.21-.23c-.17,0-.21.24-.21,1.27s0,1.27.21,1.27S50.72,48.13,50.72,47.48ZM54.25,47c0-1,0-1.27-.21-1.27s-.21.24-.21,1.27,0,1.27.21,1.27S54.25,48.07,54.25,47Zm-34-2c.14-.24-.19-.51-.38-.31a.27.27,0,0,0,.15.46A.36.36,0,0,0,20.29,45.06Zm34-.13c0-.31-.41-.25-.46,0s0,.26.21.21A.3.3,0,0,0,54.32,44.93Zm15.91-6.66a5.2,5.2,0,0,0,2.36-2.47L73,35V8l-.41-.85a4.92,4.92,0,0,0-3.78-2.76c-.57-.08-11.64-.12-30-.1l-29.1,0-.95.46A5.05,5.05,0,0,0,6.22,7.41c-.29.77-.29.93-.26,14.32L6,35.28l.34.64a4.87,4.87,0,0,0,2.79,2.53c.68.27,1.47.27,30.5.24l29.81,0Z"/><path class="cls-1" d="M77,0H0V50H77Z"/><path class="cls-4" d="M0,25V0H77V50H0Z"/><path class="cls-2" d="M38.5,0H0V50H77V0ZM17.94,48.31H16.81V46.62c0-1.41.05-1.69.21-1.69s.22.27.22,1.55V48h.92c.52,0,.91,0,.91.14S18.61,48.31,17.94,48.31Zm2.12,0c-.08,0-.14-.52-.14-1.27s.06-1.27.14-1.27.14.53.14,1.27S20.15,48.31,20.06,48.31Zm.23-3.25a.36.36,0,0,1-.23.15.27.27,0,0,1-.15-.46C20.1,44.55,20.43,44.82,20.29,45.06Zm2.08.08c-.32,0-.41.07-.44.32s0,.31.31.31c.45,0,.48.24.05.31s-.32.13-.36,1.15c0,.83-.09,1.08-.24,1.08s-.21-.23-.21-1.06-.06-1.08-.22-1.14-.28-.34,0-.34c.09,0,.24-.21.31-.45.12-.4.21-.46.67-.5s.53,0,.53.14S22.59,45.15,22.37,45.14Zm2.21,2c-.73,0-1,0-1,.19,0,.5.91.84,1.42.53.28-.18.48,0,.27.21a1.65,1.65,0,0,1-1.74-.1c-.3-.22-.37-.4-.37-.9a1.21,1.21,0,0,1,1.5-1.28,1.08,1.08,0,0,1,.9,1C25.57,47.17,25.52,47.18,24.58,47.18Zm2.19,1.13c-.18,0-.21-.3-.21-1.76s0-1.76.21-1.76.22.29.22,1.76S27,48.31,26.77,48.31ZM30.16,48a1.42,1.42,0,0,1-1.82,0,.87.87,0,0,1-.37-.83c0-.73.12-1,.58-1.19a1.19,1.19,0,0,1,1.56.19A1.21,1.21,0,0,1,30.16,48Zm3.54.35c-.17,0-.22-.2-.22-.89,0-1-.14-1.22-.8-1.22s-.75.29-.75,1.32c0,.61,0,.79-.21.79s-.21-.24-.21-1.27a3.42,3.42,0,0,1,.12-1.27.25.25,0,0,1,.19.16c0,.1.17.1.44,0,1.1-.42,1.65.08,1.65,1.48C33.91,48.11,33.87,48.31,33.7,48.31Zm3.42.68a1.89,1.89,0,0,1-1.88.11c-.39-.28-.2-.38.39-.2S36.8,49,37,48.45s.1-.72-.17-.45a1.5,1.5,0,0,1-1.64-.15,1.4,1.4,0,0,1-.1-1.61,1.46,1.46,0,0,1,1.6-.32c.26.11.39.11.42,0s.11-.16.18-.16a4.25,4.25,0,0,1,.13,1.46C37.44,48.56,37.41,48.7,37.12,49Zm3.29-.68a4.75,4.75,0,0,1-.14-1.76,4.71,4.71,0,0,1,.14-1.76,5,5,0,0,1,.14,1.76A5,5,0,0,1,40.41,48.31ZM43,47.18c-1.12,0-1.24.1-.78.57a1,1,0,0,0,1.23.12.31.31,0,0,1,.34,0c.13.08.1.15-.08.31a2,2,0,0,1-1.64,0,1.32,1.32,0,0,1,.75-2.36,1.54,1.54,0,0,1,1.24,1.12C44.08,47.15,44,47.18,43,47.18Zm3.89,1.06-.89,0c-1,0-1.23-.1-1.23-.7s.39-.68,1.21-.68c.44,0,.5,0,.45-.31s-.12-.32-.77-.32c-.81,0-1-.14-.38-.35a1.15,1.15,0,0,1,1.32.14c.23.22.29.46.29,1.24Zm2.23-2c-.43.05-.68.59-.68,1.42,0,.36-.06.66-.14.66s-.14-.52-.14-1.27a3.09,3.09,0,0,1,.13-1.27c.07,0,.15.08.18.16s.13.13.35,0c.41-.21.61-.2.61,0S49.31,46.2,49.14,46.23Zm3.35,2.08c-.17,0-.22-.2-.22-.89,0-1-.14-1.22-.72-1.22s-.83.34-.83,1.28c0,.65,0,.83-.21.83s-.21-.24-.21-1.27,0-1.27.21-1.27a.22.22,0,0,1,.21.23c0,.2,0,.2.31,0a1.07,1.07,0,0,1,1.39.08c.22.24.28.5.28,1.27S52.66,48.31,52.49,48.31Zm1.55,0c-.17,0-.21-.24-.21-1.27s0-1.27.21-1.27.21.24.21,1.27S54.21,48.31,54,48.31Zm0-3.13c-.2,0-.25,0-.21-.21s.46-.35.46,0A.3.3,0,0,1,54.07,45.18Zm3.66,3.27c-.33,0-.41-.31-.34-1.13s-.18-1.17-.82-1.09-.76.52-.76,1.42c0,.36-.06.66-.14.66s-.15-.52-.15-1.27a3.3,3.3,0,0,1,.13-1.27.25.25,0,0,1,.19.16c0,.13.14.13.38,0a1.23,1.23,0,0,1,1.45.31,3.43,3.43,0,0,1,.24,1.27C57.94,48.3,57.91,48.45,57.73,48.45Zm3.43.48c-.24.31-.39.37-.94.35-.78,0-1.42-.21-1.22-.41a1.17,1.17,0,0,1,.72,0c.74.21,1.32-.1,1.32-.69,0-.29,0-.34-.17-.21a1.77,1.77,0,0,1-1.69-.1,1.25,1.25,0,0,1,1.52-2c.31.14.39.14.45,0s.11-.17.18-.17a3.9,3.9,0,0,1,.13,1.4C61.46,48.35,61.42,48.61,61.16,48.93ZM73,21.48V35l-.38.8a5.2,5.2,0,0,1-2.36,2.47l-.79.39-29.81,0c-29,0-29.82,0-30.5-.24a4.87,4.87,0,0,1-2.79-2.53L6,35.28,6,21.73c0-13.39,0-13.55.26-14.32A5.05,5.05,0,0,1,8.73,4.76l.95-.46,29.1,0c18.36,0,29.43,0,30,.1a4.92,4.92,0,0,1,3.78,2.76L73,8Z"/><path class="cls-2" d="M35.63,47.66a.85.85,0,0,1-.08-1.24,1,1,0,0,1,.62-.22A.8.8,0,0,1,37,47a.92.92,0,0,1-.85.85A1.11,1.11,0,0,1,35.63,47.66Z"/><path class="cls-2" d="M59.54,47.54c-.57-.57-.19-1.34.65-1.34a.81.81,0,0,1,.56,1.41A.76.76,0,0,1,59.54,47.54Z"/><path class="cls-2" d="M23.59,46.72a.61.61,0,0,1,.17-.35c.36-.36,1.39-.1,1.39.32,0,.16-.19.21-.78.21S23.59,46.85,23.59,46.72Z"/><path class="cls-2" d="M28.72,47.82a.74.74,0,0,1-.29-.68c0-.58.32-.94.82-.94a.89.89,0,0,1,.56,1.55A.76.76,0,0,1,28.72,47.82Z"/><path class="cls-2" d="M42.13,46.59a.87.87,0,0,1,1.26-.17c.44.4.32.48-.59.48h-.87Z"/><path class="cls-2" d="M45.25,47.8c-.11-.31.31-.62.84-.62s.55.36.22.68S45.35,48.07,45.25,47.8Z"/><path class="cls-2" d="M9.61,22.58c0-13,0-13.66.27-14.2A2.64,2.64,0,0,1,11.33,7c.47-.18,2.05-.21,12.83-.21H36.45v5.35H15V36.2H9.61Z"/><path class="cls-2" d="M40,33.59V31l10.85,0c12,0,11.39,0,12.28-1a3.4,3.4,0,0,0,.81-2.5A2.93,2.93,0,0,0,63,25.17c-.84-.9-.51-.86-8.64-1s-8.2-.1-10.17-1.06A8.31,8.31,0,0,1,40,17.68a13.92,13.92,0,0,1,0-4.37A8.35,8.35,0,0,1,47.23,6.9c.57-.07,5.13-.14,10.17-.14h9.14v5.35H57c-9,0-9.56,0-10.14.27a3.29,3.29,0,0,0-1.64,1.83,4.61,4.61,0,0,0-.17,1.28,3,3,0,0,0,1.55,2.93l.64.38,7.56.07,7.56.09,1,.38c3.69,1.41,5.62,4,5.79,7.74a8,8,0,0,1-.82,4.4,7.1,7.1,0,0,1-3.71,3.76c-2,1-1.83,1-13.86,1H40Z"/><path class="cls-2" d="M17.1,21.55V18.87H34.05v5.36H17.1Z"/></g></g></svg>